{"title":"Vampires 1998 720p Brrip x264 SSloco","uid":11984860,"size":857368272,"categoryP":"video","categoryS":"hd___movies","magnet":"?xt=urn:btih:24598c253d6372de8d52102776478eac9ba9ff3e&amp;dn=Vampires+1998+720p+Brrip+x264+SSloco&amp;tr=udp%3A%2F%2Ftracker.openbittorrent.com%3A80&amp;tr=udp%3A%2F%2Fopen.demonii.com%3A1337&amp;tr=udp%3A%2F%2Ftracker.coppersurfer.tk%3A6969&amp;tr=udp%3A%2F%2Fexodus.desync.com%3A6969","seeders":0,"leechers":1,"uploader":"myhoes14","files":1,"time":1433325168,"description":"Source Used:Vampires.1998.720p.BluRay.AC3.x264-PsiX\n\nAudio Info:Dolby Pro Logic 2 \n\n\nSeed For Others If U Want :) Thanks \n\n\n\n\n\nFormat : MPEG-4\nFormat profile : Base Media\nCodec ID : isom\nFile size : 818 MiB\nDuration : 1h 47mn\nOverall bit rate mode : Variable\nOverall bit rate : 1 061 Kbps\nEncoded date : UTC 2014-06-25 14:28:55\nTagged date : UTC 2014-06-25 14:28:55\n\nVideo\nID : 1\nFormat : AVC\nFormat/Info : Advanced Video Codec\nFormat profile : &lt;a class=&quot;__cf_email__&quot; href=&quot;/cdn-cgi/l/email-protection&quot; data-cfemail=&quot;6921000e0129255d4759&quot;&gt;[email&amp;#160;protected]&lt;/a&gt;&lt;script data-cfhash='f9e31' type=&quot;text/javascript&quot;&gt;\n/* &lt;![CDATA[ */!function(){try{var t=&quot;currentScript&quot;in document?document.currentScript:function(){for(var t=document.getElementsByTagName(&quot;script&quot;),e=t.length;e--;)if(t[e].getAttribute(&quot;data-cfhash&quot;))return t[e]}();if(t&amp;&amp;t.previousSibling){var e,r,n,i,c=t.previousSibling,a=c.getAttribute(&quot;data-cfemail&quot;);if(a){for(e=&quot;&quot;,r=parseInt(a.substr(0,2),16),n=2;a.length-n;n+=2)i=parseInt(a.substr(n,2),16)^r,e+=String.fromCharCode(i);e=document.createTextNode(e),c.parentNode.replaceChild(e,c)}t.parentNode.removeChild(t);}}catch(u){}}()/* ]]&gt; */&lt;/script&gt;\nFormat settings, CABAC : Yes\nFormat settings, ReFrames : 9 frames\nCodec ID : avc1\nCodec ID/Info : Advanced Video Coding\nDuration : 1h 47mn\nBit rate : 959 Kbps\nMaximum bit rate : 3 782 Kbps\nWidth : 1 280 pixels\nHeight : 536 pixels\nDisplay aspect ratio : 2.40:1\nFrame rate mode : Constant\nFrame rate : 24.000 fps\nColor space : YUV\nChroma subsampling : 4:2:0\nBit depth : 8 bits\nScan type : Progressive\nBits/(Pixel*Frame) : 0.058\nStream size : 739 MiB (90%)\nWriting library : x264 core 138 r2358 9e941d1\nEncoding settings : cabac=1 / ref=9 / deblock=1:0:0 / analyse=0x3:0x113 / me=umh / subme=7 / psy=1 / psy_rd=1.00:0.00 / mixed_ref=1 / me_range=16 / chroma_me=1 / trellis=1 / 8x8dct=1 / cqm=0 / deadzone=21,11 / fast_pskip=1 / chroma_qp_offset=-2 / threads=1 / lookahead_threads=1 / sliced_threads=0 / nr=0 / decimate=0 / interlaced=0 / bluray_compat=0 / constrained_intra=0 / bframes=5 / b_pyramid=2 / b_adapt=2 / b_bias=0 / direct=1 / weightb=1 / open_gop=0 / weightp=2 / keyint=240 / keyint_min=24 / scenecut=40 / intra_refresh=0 / rc_lookahead=40 / rc=2pass / mbtree=1 / bitrate=959 / ratetol=1.0 / qcomp=0.60 / qpmin=0 / qpmax=69 / qpstep=4 / cplxblur=20.0 / qblur=0.5 / vbv_maxrate=25000 / vbv_bufsize=31250 / nal_hrd=none / ip_ratio=1.40 / aq=1:1.00\nEncoded date : UTC 2014-06-25 14:28:55\nTagged date : UTC 2014-06-25 14:30:59\n\nAudio\nID : 2\nFormat : AAC\nFormat/Info : Advanced Audio Codec\nFormat profile : LC\nCodec ID : 40\nDuration : 1h 47mn\nBit rate mode : Variable\nBit rate : 98.5 Kbps\nMaximum bit rate : 141 Kbps\nChannel count : 2 channels\nChannel positions : Front: L R\nSampling rate : 48.0 KHz\nCompression mode : Lossy\nStream size : 76.0 MiB (9%)\nEncoded date : UTC 2014-06-25 14:30:42\nTagged date : UTC 2014-06-25 14:30:59\n\nMenu\n00:00:00.000 : 00:00:00.000\n00:03:37.666 : 00:03:37.666\n00:11:02.416 : 00:11:02.416\n00:14:55.625 : 00:14:55.625\n00:19:05.583 : 00:19:05.583\n00:22:33.125 : 00:22:33.125\n00:25:50.291 : 00:25:50.291\n00:28:38.250 : 00:28:38.250\n00:35:29.000 : 00:35:29.000\n00:39:50.166 : 00:39:50.166\n00:45:37.166 : 00:45:37.166\n00:52:25.583 : 00:52:25.583\n00:57:38.750 : 00:57:38.750\n00:59:34.041 : 00:59:34.041\n01:01:23.583 : 01:01:23.583\n01:06:36.791 : 01:06:36.791\n01:13:40.416 : 01:13:40.416\n01:19:01.500 : 01:19:01.500\n01:25:30.333 : 01:25:30.333\n01:29:50.083 : 01:29:50.083\n01:31:48.958 : 01:31:48.958\n01:34:21.166 : 01:34:21.166\n01:39:16.958 : 01:39:16.958\n01:43:34.416 : 01:43:34.416","torrent":{"xt":"urn:btih:24598c253d6372de8d52102776478eac9ba9ff3e","amp;dn":"Vampires+1998+720p+Brrip+x264+SSloco","amp;tr":["udp%3A%2F%2Ftracker.openbittorrent.com%3A80","udp%3A%2F%2Fopen.demonii.com%3A1337","udp%3A%2F%2Ftracker.coppersurfer.tk%3A6969","udp%3A%2F%2Fexodus.desync.com%3A6969"],"infoHash":"24598c253d6372de8d52102776478eac9ba9ff3e","infoHashBuffer":{"type":"Buffer","data":[36,89,140,37,61,99,114,222,141,82,16,39,118,71,142,172,155,169,255,62]},"announce":[],"urlList":[]}}